<?xml version="1.0" standalone="no"?>
 <!DOCTYPE svg PUBLIC "-//W3C//DTD SVG 1.1//EN" 
 "http://www.w3.org/Graphics/SVG/1.1/DTD/svg11.dtd"> 
<svg
  xmlns:svg="http://www.w3.org/2000/svg"
  xmlns="http://www.w3.org/2000/svg"
  xmlns:xlink="http://www.w3.org/1999/xlink"
  version="1.1"
  width="148.0058mm" height="210.0072mm" viewBox="0.0000 0.0000 148.0058 210.0072">
<title>SVG Image created as symbols.svg date 2025/07/05 17:26:17 </title>
  <desc>Image generated by Eeschema-SVG </desc>
<g style="fill:#000000; fill-opacity:1.0000;stroke:#000000; stroke-opacity:1.0000;
stroke-linecap:round; stroke-linejoin:round;"
 transform="translate(0 0) scale(1 1)">
</g>
<g style="fill:none; 
stroke:#000000; stroke-width:0.2540; stroke-opacity:1; 
stroke-linecap:round; stroke-linejoin:round;">
<rect x="67.310000" y="65.405000" width="10.160000" height="6.985000" rx="0.000000" />
</g>
<g style="fill:none; 
stroke:#000000; stroke-width:0.1524; stroke-opacity:1; 
stroke-linecap:round; stroke-linejoin:round;">
<g transform="rotate(-90.000000 72.3900 67.3099)">
<text x="72.3900" y="67.9449"
textLength="7.1579" font-size="1.6933" lengthAdjust="spacingAndGlyphs"
text-anchor="middle" opacity="0" stroke-opacity="0">lib text</text>
</g>
<g class="stroked-text"><desc>lib text</desc>
<path d="M72.9695 70.3033
L72.9091 70.4243
" />
<path d="M72.9091 70.4243
L72.7881 70.4848
" />
<path d="M72.7881 70.4848
L71.6995 70.4848
" />
<path d="M72.9695 69.8196
L72.1229 69.8196
" />
<path d="M71.6995 69.8196
L71.7600 69.8800
" />
<path d="M71.7600 69.8800
L71.8205 69.8196
" />
<path d="M71.8205 69.8196
L71.7600 69.7591
" />
<path d="M71.7600 69.7591
L71.6995 69.8196
" />
<path d="M71.6995 69.8196
L71.8205 69.8196
" />
<path d="M72.9695 69.2148
L71.6995 69.2148
" />
<path d="M72.1833 69.2148
L72.1229 69.0938
" />
<path d="M72.1229 69.0938
L72.1229 68.8519
" />
<path d="M72.1229 68.8519
L72.1833 68.7310
" />
<path d="M72.1833 68.7310
L72.2438 68.6705
" />
<path d="M72.2438 68.6705
L72.3648 68.6100
" />
<path d="M72.3648 68.6100
L72.7276 68.6100
" />
<path d="M72.7276 68.6100
L72.8486 68.6705
" />
<path d="M72.8486 68.6705
L72.9091 68.7310
" />
<path d="M72.9091 68.7310
L72.9695 68.8519
" />
<path d="M72.9695 68.8519
L72.9695 69.0938
" />
<path d="M72.9695 69.0938
L72.9091 69.2148
" />
<path d="M72.1229 67.2796
L72.1229 66.7958
" />
<path d="M71.6995 67.0982
L72.7881 67.0982
" />
<path d="M72.7881 67.0982
L72.9091 67.0377
" />
<path d="M72.9091 67.0377
L72.9695 66.9167
" />
<path d="M72.9695 66.9167
L72.9695 66.7958
" />
<path d="M72.9091 65.8887
L72.9695 66.0096
" />
<path d="M72.9695 66.0096
L72.9695 66.2515
" />
<path d="M72.9695 66.2515
L72.9091 66.3725
" />
<path d="M72.9091 66.3725
L72.7881 66.4329
" />
<path d="M72.7881 66.4329
L72.3043 66.4329
" />
<path d="M72.3043 66.4329
L72.1833 66.3725
" />
<path d="M72.1833 66.3725
L72.1229 66.2515
" />
<path d="M72.1229 66.2515
L72.1229 66.0096
" />
<path d="M72.1229 66.0096
L72.1833 65.8887
" />
<path d="M72.1833 65.8887
L72.3043 65.8282
" />
<path d="M72.3043 65.8282
L72.4252 65.8282
" />
<path d="M72.4252 65.8282
L72.5462 66.4329
" />
<path d="M72.9695 65.4048
L72.1229 64.7396
" />
<path d="M72.1229 65.4048
L72.9695 64.7396
" />
<path d="M72.1229 64.4372
L72.1229 63.9534
" />
<path d="M71.6995 64.2558
L72.7881 64.2558
" />
<path d="M72.7881 64.2558
L72.9091 64.1953
" />
<path d="M72.9091 64.1953
L72.9695 64.0743
" />
<path d="M72.9695 64.0743
L72.9695 63.9534
" />
</g><path d="M67.3100 67.3100
L64.7700 67.3100
" />
<text x="67.5640" y="67.9450"
textLength="1.8966" font-size="1.6933" lengthAdjust="spacingAndGlyphs"
text-anchor="start" opacity="0" stroke-opacity="0">VI</text>
<g class="stroked-text"><desc>VI</desc>
<path d="M67.7851 66.6195
L68.2084 67.8895
" />
<path d="M68.2084 67.8895
L68.6318 66.6195
" />
<path d="M69.0551 67.8895
L69.0551 66.6195
" />
</g><text x="66.0400" y="67.0560"
textLength="1.4127" font-size="1.6933" lengthAdjust="spacingAndGlyphs"
text-anchor="middle" opacity="0" stroke-opacity="0">3</text>
<g class="stroked-text"><desc>3</desc>
<path d="M65.6167 65.6225
L66.4029 65.6225
" />
<path d="M66.4029 65.6225
L65.9795 66.1063
" />
<path d="M65.9795 66.1063
L66.1610 66.1063
" />
<path d="M66.1610 66.1063
L66.2819 66.1668
" />
<path d="M66.2819 66.1668
L66.3424 66.2273
" />
<path d="M66.3424 66.2273
L66.4029 66.3482
" />
<path d="M66.4029 66.3482
L66.4029 66.6506
" />
<path d="M66.4029 66.6506
L66.3424 66.7716
" />
<path d="M66.3424 66.7716
L66.2819 66.8321
" />
<path d="M66.2819 66.8321
L66.1610 66.8925
" />
<path d="M66.1610 66.8925
L65.7981 66.8925
" />
<path d="M65.7981 66.8925
L65.6772 66.8321
" />
<path d="M65.6772 66.8321
L65.6167 66.7716
" />
</g><path d="M72.3900 72.3900
L72.3900 74.9300
" />
<g transform="rotate(-90.000000 72.3900 72.1360)">
<text x="72.3900" y="72.7710"
textLength="4.0737" font-size="1.6933" lengthAdjust="spacingAndGlyphs"
text-anchor="start" opacity="0" stroke-opacity="0">GND</text>
</g>
<g class="stroked-text"><desc>GND</desc>
<path d="M71.7600 71.0681
L71.6995 71.1891
" />
<path d="M71.6995 71.1891
L71.6995 71.3705
" />
<path d="M71.6995 71.3705
L71.7600 71.5519
" />
<path d="M71.7600 71.5519
L71.8810 71.6729
" />
<path d="M71.8810 71.6729
L72.0019 71.7334
" />
<path d="M72.0019 71.7334
L72.2438 71.7938
" />
<path d="M72.2438 71.7938
L72.4252 71.7938
" />
<path d="M72.4252 71.7938
L72.6671 71.7334
" />
<path d="M72.6671 71.7334
L72.7881 71.6729
" />
<path d="M72.7881 71.6729
L72.9091 71.5519
" />
<path d="M72.9091 71.5519
L72.9695 71.3705
" />
<path d="M72.9695 71.3705
L72.9695 71.2496
" />
<path d="M72.9695 71.2496
L72.9091 71.0681
" />
<path d="M72.9091 71.0681
L72.8486 71.0077
" />
<path d="M72.8486 71.0077
L72.4252 71.0077
" />
<path d="M72.4252 71.0077
L72.4252 71.2496
" />
<path d="M72.9695 70.4634
L71.6995 70.4634
" />
<path d="M71.6995 70.4634
L72.9695 69.7377
" />
<path d="M72.9695 69.7377
L71.6995 69.7377
" />
<path d="M72.9695 69.1329
L71.6995 69.1329
" />
<path d="M71.6995 69.1329
L71.6995 68.8305
" />
<path d="M71.6995 68.8305
L71.7600 68.6491
" />
<path d="M71.7600 68.6491
L71.8810 68.5281
" />
<path d="M71.8810 68.5281
L72.0019 68.4676
" />
<path d="M72.0019 68.4676
L72.2438 68.4072
" />
<path d="M72.2438 68.4072
L72.4252 68.4072
" />
<path d="M72.4252 68.4072
L72.6671 68.4676
" />
<path d="M72.6671 68.4676
L72.7881 68.5281
" />
<path d="M72.7881 68.5281
L72.9091 68.6491
" />
<path d="M72.9091 68.6491
L72.9695 68.8305
" />
<path d="M72.9695 68.8305
L72.9695 69.1329
" />
</g><g transform="rotate(-90.000000 72.1360 73.6600)">
<text x="72.1360" y="73.6600"
textLength="1.4127" font-size="1.6933" lengthAdjust="spacingAndGlyphs"
text-anchor="middle" opacity="0" stroke-opacity="0">1</text>
</g>
<g class="stroked-text"><desc>1</desc>
<path d="M71.9725 73.2970
L71.9725 74.0227
" />
<path d="M71.9725 73.6599
L70.7025 73.6599
" />
<path d="M70.7025 73.6599
L70.8840 73.7808
" />
<path d="M70.8840 73.7808
L71.0049 73.9018
" />
<path d="M71.0049 73.9018
L71.0654 74.0227
" />
</g><path d="M77.4700 67.3100
L80.0100 67.3100
" />
<text x="77.2160" y="67.9450"
textLength="2.6223" font-size="1.6933" lengthAdjust="spacingAndGlyphs"
text-anchor="end" opacity="0" stroke-opacity="0">VO</text>
<g class="stroked-text"><desc>VO</desc>
<path d="M74.8176 66.6195
L75.2409 67.8895
" />
<path d="M75.2409 67.8895
L75.6643 66.6195
" />
<path d="M76.3295 66.6195
L76.5714 66.6195
" />
<path d="M76.5714 66.6195
L76.6924 66.6800
" />
<path d="M76.6924 66.6800
L76.8133 66.8010
" />
<path d="M76.8133 66.8010
L76.8738 67.0429
" />
<path d="M76.8738 67.0429
L76.8738 67.4662
" />
<path d="M76.8738 67.4662
L76.8133 67.7081
" />
<path d="M76.8133 67.7081
L76.6924 67.8291
" />
<path d="M76.6924 67.8291
L76.5714 67.8895
" />
<path d="M76.5714 67.8895
L76.3295 67.8895
" />
<path d="M76.3295 67.8895
L76.2086 67.8291
" />
<path d="M76.2086 67.8291
L76.0876 67.7081
" />
<path d="M76.0876 67.7081
L76.0272 67.4662
" />
<path d="M76.0272 67.4662
L76.0272 67.0429
" />
<path d="M76.0272 67.0429
L76.0876 66.8010
" />
<path d="M76.0876 66.8010
L76.2086 66.6800
" />
<path d="M76.2086 66.6800
L76.3295 66.6195
" />
</g><text x="78.7400" y="67.0560"
textLength="1.4127" font-size="1.6933" lengthAdjust="spacingAndGlyphs"
text-anchor="middle" opacity="0" stroke-opacity="0">2</text>
<g class="stroked-text"><desc>2</desc>
<path d="M78.3772 65.7435
L78.4376 65.6830
" />
<path d="M78.4376 65.6830
L78.5586 65.6225
" />
<path d="M78.5586 65.6225
L78.8610 65.6225
" />
<path d="M78.8610 65.6225
L78.9819 65.6830
" />
<path d="M78.9819 65.6830
L79.0424 65.7435
" />
<path d="M79.0424 65.7435
L79.1029 65.8644
" />
<path d="M79.1029 65.8644
L79.1029 65.9854
" />
<path d="M79.1029 65.9854
L79.0424 66.1668
" />
<path d="M79.0424 66.1668
L78.3167 66.8925
" />
<path d="M78.3167 66.8925
L79.1029 66.8925
" />
</g><g transform="rotate(-90.000000 68.3900 74.3099)">
<text x="68.3900" y="74.9449"
textLength="2.6223" font-size="1.6933" lengthAdjust="spacingAndGlyphs"
text-anchor="middle" opacity="0" stroke-opacity="0">U?</text>
</g>
<g class="stroked-text"><desc>U?</desc>
<path d="M67.6995 75.2170
L68.7276 75.2170
" />
<path d="M68.7276 75.2170
L68.8486 75.1565
" />
<path d="M68.8486 75.1565
L68.9091 75.0960
" />
<path d="M68.9091 75.0960
L68.9695 74.9751
" />
<path d="M68.9695 74.9751
L68.9695 74.7332
" />
<path d="M68.9695 74.7332
L68.9091 74.6122
" />
<path d="M68.9091 74.6122
L68.8486 74.5517
" />
<path d="M68.8486 74.5517
L68.7276 74.4913
" />
<path d="M68.7276 74.4913
L67.6995 74.4913
" />
<path d="M68.8486 73.7050
L68.9091 73.6446
" />
<path d="M68.9091 73.6446
L68.9695 73.7050
" />
<path d="M68.9695 73.7050
L68.9091 73.7655
" />
<path d="M68.9091 73.7655
L68.8486 73.7050
" />
<path d="M68.8486 73.7050
L68.9695 73.7050
" />
<path d="M67.7600 73.9469
L67.6995 73.8260
" />
<path d="M67.6995 73.8260
L67.6995 73.5236
" />
<path d="M67.6995 73.5236
L67.7600 73.4027
" />
<path d="M67.7600 73.4027
L67.8810 73.3422
" />
<path d="M67.8810 73.3422
L68.0019 73.3422
" />
<path d="M68.0019 73.3422
L68.1229 73.4027
" />
<path d="M68.1229 73.4027
L68.1833 73.4631
" />
<path d="M68.1833 73.4631
L68.2438 73.5841
" />
<path d="M68.2438 73.5841
L68.3043 73.6446
" />
<path d="M68.3043 73.6446
L68.4252 73.7050
" />
<path d="M68.4252 73.7050
L68.4857 73.7050
" />
</g><g transform="rotate(-90.000000 79.3900 73.3100)">
<text x="79.3900" y="73.9450"
textLength="11.3912" font-size="1.6933" lengthAdjust="spacingAndGlyphs"
text-anchor="middle" opacity="0" stroke-opacity="0">AP1117-15</text>
</g>
<g class="stroked-text"><desc>AP1117-15</desc>
<path d="M79.6067 78.6620
L79.6067 78.0573
" />
<path d="M79.9695 78.7830
L78.6995 78.3597
" />
<path d="M78.6995 78.3597
L79.9695 77.9363
" />
<path d="M79.9695 77.5130
L78.6995 77.5130
" />
<path d="M78.6995 77.5130
L78.6995 77.0292
" />
<path d="M78.6995 77.0292
L78.7600 76.9082
" />
<path d="M78.7600 76.9082
L78.8205 76.8477
" />
<path d="M78.8205 76.8477
L78.9414 76.7873
" />
<path d="M78.9414 76.7873
L79.1229 76.7873
" />
<path d="M79.1229 76.7873
L79.2438 76.8477
" />
<path d="M79.2438 76.8477
L79.3043 76.9082
" />
<path d="M79.3043 76.9082
L79.3648 77.0292
" />
<path d="M79.3648 77.0292
L79.3648 77.5130
" />
<path d="M79.9695 75.5777
L79.9695 76.3034
" />
<path d="M79.9695 75.9406
L78.6995 75.9406
" />
<path d="M78.6995 75.9406
L78.8810 76.0615
" />
<path d="M78.8810 76.0615
L79.0019 76.1825
" />
<path d="M79.0019 76.1825
L79.0624 76.3034
" />
<path d="M79.9695 74.3682
L79.9695 75.0939
" />
<path d="M79.9695 74.7311
L78.6995 74.7311
" />
<path d="M78.6995 74.7311
L78.8810 74.8520
" />
<path d="M78.8810 74.8520
L79.0019 74.9730
" />
<path d="M79.0019 74.9730
L79.0624 75.0939
" />
<path d="M79.9695 73.1587
L79.9695 73.8844
" />
<path d="M79.9695 73.5216
L78.6995 73.5216
" />
<path d="M78.6995 73.5216
L78.8810 73.6425
" />
<path d="M78.8810 73.6425
L79.0019 73.7635
" />
<path d="M79.0019 73.7635
L79.0624 73.8844
" />
<path d="M78.6995 72.7354
L78.6995 71.8888
" />
<path d="M78.6995 71.8888
L79.9695 72.4330
" />
<path d="M79.4857 71.4050
L79.4857 70.4374
" />
<path d="M79.9695 69.1673
L79.9695 69.8930
" />
<path d="M79.9695 69.5302
L78.6995 69.5302
" />
<path d="M78.6995 69.5302
L78.8810 69.6511
" />
<path d="M78.8810 69.6511
L79.0019 69.7721
" />
<path d="M79.0019 69.7721
L79.0624 69.8930
" />
<path d="M78.6995 68.0183
L78.6995 68.6231
" />
<path d="M78.6995 68.6231
L79.3043 68.6835
" />
<path d="M79.3043 68.6835
L79.2438 68.6231
" />
<path d="M79.2438 68.6231
L79.1833 68.5021
" />
<path d="M79.1833 68.5021
L79.1833 68.1997
" />
<path d="M79.1833 68.1997
L79.2438 68.0788
" />
<path d="M79.2438 68.0788
L79.3043 68.0183
" />
<path d="M79.3043 68.0183
L79.4252 67.9578
" />
<path d="M79.4252 67.9578
L79.7276 67.9578
" />
<path d="M79.7276 67.9578
L79.8486 68.0183
" />
<path d="M79.8486 68.0183
L79.9091 68.0788
" />
<path d="M79.9091 68.0788
L79.9695 68.1997
" />
<path d="M79.9695 68.1997
L79.9695 68.5021
" />
<path d="M79.9695 68.5021
L79.9091 68.6231
" />
<path d="M79.9091 68.6231
L79.8486 68.6835
" />
</g><path style="fill:none; 
stroke:#000000; stroke-width:0.1524; stroke-opacity:1; 
stroke-linecap:round; stroke-linejoin:round;fill:none"
d="M 72.3900,100.3300
72.3900,101.6000
73.6600,101.6000
72.3900,102.8700
71.1200,101.6000
72.3900,101.6000
" /> 
<text x="72.3900" y="106.0450"
textLength="4.0737" font-size="1.6933" lengthAdjust="spacingAndGlyphs"
text-anchor="middle" opacity="0" stroke-opacity="0">GND</text>
<g class="stroked-text"><desc>GND</desc>
<path d="M71.4224 104.7800
L71.3014 104.7195
" />
<path d="M71.3014 104.7195
L71.1200 104.7195
" />
<path d="M71.1200 104.7195
L70.9386 104.7800
" />
<path d="M70.9386 104.7800
L70.8176 104.9010
" />
<path d="M70.8176 104.9010
L70.7571 105.0219
" />
<path d="M70.7571 105.0219
L70.6967 105.2638
" />
<path d="M70.6967 105.2638
L70.6967 105.4452
" />
<path d="M70.6967 105.4452
L70.7571 105.6871
" />
<path d="M70.7571 105.6871
L70.8176 105.8081
" />
<path d="M70.8176 105.8081
L70.9386 105.9291
" />
<path d="M70.9386 105.9291
L71.1200 105.9895
" />
<path d="M71.1200 105.9895
L71.2409 105.9895
" />
<path d="M71.2409 105.9895
L71.4224 105.9291
" />
<path d="M71.4224 105.9291
L71.4828 105.8686
" />
<path d="M71.4828 105.8686
L71.4828 105.4452
" />
<path d="M71.4828 105.4452
L71.2409 105.4452
" />
<path d="M72.0271 105.9895
L72.0271 104.7195
" />
<path d="M72.0271 104.7195
L72.7528 105.9895
" />
<path d="M72.7528 105.9895
L72.7528 104.7195
" />
<path d="M73.3576 105.9895
L73.3576 104.7195
" />
<path d="M73.3576 104.7195
L73.6600 104.7195
" />
<path d="M73.6600 104.7195
L73.8414 104.7800
" />
<path d="M73.8414 104.7800
L73.9624 104.9010
" />
<path d="M73.9624 104.9010
L74.0229 105.0219
" />
<path d="M74.0229 105.0219
L74.0833 105.2638
" />
<path d="M74.0833 105.2638
L74.0833 105.4452
" />
<path d="M74.0833 105.4452
L74.0229 105.6871
" />
<path d="M74.0229 105.6871
L73.9624 105.8081
" />
<path d="M73.9624 105.8081
L73.8414 105.9291
" />
<path d="M73.8414 105.9291
L73.6600 105.9895
" />
<path d="M73.6600 105.9895
L73.3576 105.9895
" />
</g><path style="fill:none; 
stroke:#000000; stroke-width:0.1524; stroke-opacity:1; 
stroke-linecap:round; stroke-linejoin:round;fill:none"
d="M 104.1400,100.3300
104.1400,101.6000
105.4100,101.6000
104.1400,102.8700
102.8700,101.6000
104.1400,101.6000
" /> 
<text x="104.1400" y="106.0450"
textLength="4.0737" font-size="1.6933" lengthAdjust="spacingAndGlyphs"
text-anchor="middle" opacity="0" stroke-opacity="0">GND</text>
<g class="stroked-text"><desc>GND</desc>
<path d="M103.1724 104.7800
L103.0514 104.7195
" />
<path d="M103.0514 104.7195
L102.8700 104.7195
" />
<path d="M102.8700 104.7195
L102.6886 104.7800
" />
<path d="M102.6886 104.7800
L102.5676 104.9010
" />
<path d="M102.5676 104.9010
L102.5071 105.0219
" />
<path d="M102.5071 105.0219
L102.4467 105.2638
" />
<path d="M102.4467 105.2638
L102.4467 105.4452
" />
<path d="M102.4467 105.4452
L102.5071 105.6871
" />
<path d="M102.5071 105.6871
L102.5676 105.8081
" />
<path d="M102.5676 105.8081
L102.6886 105.9291
" />
<path d="M102.6886 105.9291
L102.8700 105.9895
" />
<path d="M102.8700 105.9895
L102.9909 105.9895
" />
<path d="M102.9909 105.9895
L103.1724 105.9291
" />
<path d="M103.1724 105.9291
L103.2328 105.8686
" />
<path d="M103.2328 105.8686
L103.2328 105.4452
" />
<path d="M103.2328 105.4452
L102.9909 105.4452
" />
<path d="M103.7771 105.9895
L103.7771 104.7195
" />
<path d="M103.7771 104.7195
L104.5028 105.9895
" />
<path d="M104.5028 105.9895
L104.5028 104.7195
" />
<path d="M105.1076 105.9895
L105.1076 104.7195
" />
<path d="M105.1076 104.7195
L105.4100 104.7195
" />
<path d="M105.4100 104.7195
L105.5914 104.7800
" />
<path d="M105.5914 104.7800
L105.7124 104.9010
" />
<path d="M105.7124 104.9010
L105.7729 105.0219
" />
<path d="M105.7729 105.0219
L105.8333 105.2638
" />
<path d="M105.8333 105.2638
L105.8333 105.4452
" />
<path d="M105.8333 105.4452
L105.7729 105.6871
" />
<path d="M105.7729 105.6871
L105.7124 105.8081
" />
<path d="M105.7124 105.8081
L105.5914 105.9291
" />
<path d="M105.5914 105.9291
L105.4100 105.9895
" />
<path d="M105.4100 105.9895
L105.1076 105.9895
" />
</g><path style="fill:none; 
stroke:#000000; stroke-width:0.5080; stroke-opacity:1; 
stroke-linecap:round; stroke-linejoin:round;fill:none"
d="M 106.1720,83.0580
102.1080,83.0580
" /> 
<path style="fill:none; 
stroke:#000000; stroke-width:0.1524; stroke-opacity:1; 
stroke-linecap:round; stroke-linejoin:round;fill:none"
d="M 105.9180,81.5340
104.9020,81.5340
" /> 
<path style="fill:none; 
stroke:#000000; stroke-width:0.1524; stroke-opacity:1; 
stroke-linecap:round; stroke-linejoin:round;fill:none"
d="M 105.4100,82.0420
105.4100,81.0260
" /> 
</g>
<g style="fill:none; 
stroke:#000000; stroke-width:0.5080; stroke-opacity:1; 
stroke-linecap:round; stroke-linejoin:round;">
<path d="M106.1720 85.0900 A3.2527 3.2527 0.0 0 0 102.1080 85.0900" />
</g>
<g style="fill:none; 
stroke:#000000; stroke-width:0.1524; stroke-opacity:1; 
stroke-linecap:round; stroke-linejoin:round;">
<path d="M104.1400 82.8040
L104.1400 80.0100
" />
<path d="M104.1400 84.3280
L104.1400 87.6300
" />
</g>
<g style="fill:none; 
stroke:#000000; stroke-width:0.2540; stroke-opacity:1; 
stroke-linecap:round; stroke-linejoin:round;">
<text x="109.2849" y="82.5500"
textLength="2.9875" font-size="1.6933" lengthAdjust="spacingAndGlyphs"
text-anchor="middle" opacity="0" stroke-opacity="0">C2</text>
<g class="stroked-text"><desc>C2</desc>
<path d="M109.0808 82.3683
L109.0128 82.4288
" />
<path d="M109.0128 82.4288
L108.8238 82.4892
" />
<path d="M108.8238 82.4892
L108.7028 82.4892
" />
<path d="M108.7028 82.4892
L108.5290 82.4288
" />
<path d="M108.5290 82.4288
L108.4231 82.3078
" />
<path d="M108.4231 82.3078
L108.3778 82.1868
" />
<path d="M108.3778 82.1868
L108.3475 81.9449
" />
<path d="M108.3475 81.9449
L108.3702 81.7635
" />
<path d="M108.3702 81.7635
L108.4609 81.5216
" />
<path d="M108.4609 81.5216
L108.5365 81.4007
" />
<path d="M108.5365 81.4007
L108.6726 81.2797
" />
<path d="M108.6726 81.2797
L108.8616 81.2192
" />
<path d="M108.8616 81.2192
L108.9825 81.2192
" />
<path d="M108.9825 81.2192
L109.1564 81.2797
" />
<path d="M109.1564 81.2797
L109.2093 81.3402
" />
<path d="M109.6931 81.3402
L109.7612 81.2797
" />
<path d="M109.7612 81.2797
L109.8897 81.2192
" />
<path d="M109.8897 81.2192
L110.1921 81.2192
" />
<path d="M110.1921 81.2192
L110.3054 81.2797
" />
<path d="M110.3054 81.2797
L110.3584 81.3402
" />
<path d="M110.3584 81.3402
L110.4037 81.4611
" />
<path d="M110.4037 81.4611
L110.3886 81.5821
" />
<path d="M110.3886 81.5821
L110.3054 81.7635
" />
<path d="M110.3054 81.7635
L109.4890 82.4892
" />
<path d="M109.4890 82.4892
L110.2752 82.4892
" />
</g></g>
<g style="fill:none; 
stroke:#000000; stroke-width:0.1524; stroke-opacity:1; 
stroke-linecap:round; stroke-linejoin:round;">
<text x="115.3787" y="85.0899"
textLength="14.8383" font-size="1.6933" lengthAdjust="spacingAndGlyphs"
text-anchor="middle" opacity="0" stroke-opacity="0">C_Polarized_US</text>
<g class="stroked-text"><desc>C_Polarized_US</desc>
<path d="M109.0892 84.9135
L109.0288 84.9740
" />
<path d="M109.0288 84.9740
L108.8473 85.0344
" />
<path d="M108.8473 85.0344
L108.7264 85.0344
" />
<path d="M108.7264 85.0344
L108.5450 84.9740
" />
<path d="M108.5450 84.9740
L108.4240 84.8530
" />
<path d="M108.4240 84.8530
L108.3635 84.7320
" />
<path d="M108.3635 84.7320
L108.3031 84.4901
" />
<path d="M108.3031 84.4901
L108.3031 84.3087
" />
<path d="M108.3031 84.3087
L108.3635 84.0668
" />
<path d="M108.3635 84.0668
L108.4240 83.9459
" />
<path d="M108.4240 83.9459
L108.5450 83.8249
" />
<path d="M108.5450 83.8249
L108.7264 83.7644
" />
<path d="M108.7264 83.7644
L108.8473 83.7644
" />
<path d="M108.8473 83.7644
L109.0288 83.8249
" />
<path d="M109.0288 83.8249
L109.0892 83.8854
" />
<path d="M109.3312 85.1554
L110.2988 85.1554
" />
<path d="M110.6011 85.0344
L110.6011 83.7644
" />
<path d="M110.6011 83.7644
L111.0849 83.7644
" />
<path d="M111.0849 83.7644
L111.2059 83.8249
" />
<path d="M111.2059 83.8249
L111.2664 83.8854
" />
<path d="M111.2664 83.8854
L111.3268 84.0063
" />
<path d="M111.3268 84.0063
L111.3268 84.1878
" />
<path d="M111.3268 84.1878
L111.2664 84.3087
" />
<path d="M111.2664 84.3087
L111.2059 84.3692
" />
<path d="M111.2059 84.3692
L111.0849 84.4297
" />
<path d="M111.0849 84.4297
L110.6011 84.4297
" />
<path d="M112.0526 85.0344
L111.9316 84.9740
" />
<path d="M111.9316 84.9740
L111.8711 84.9135
" />
<path d="M111.8711 84.9135
L111.8107 84.7925
" />
<path d="M111.8107 84.7925
L111.8107 84.4297
" />
<path d="M111.8107 84.4297
L111.8711 84.3087
" />
<path d="M111.8711 84.3087
L111.9316 84.2482
" />
<path d="M111.9316 84.2482
L112.0526 84.1878
" />
<path d="M112.0526 84.1878
L112.2340 84.1878
" />
<path d="M112.2340 84.1878
L112.3549 84.2482
" />
<path d="M112.3549 84.2482
L112.4154 84.3087
" />
<path d="M112.4154 84.3087
L112.4759 84.4297
" />
<path d="M112.4759 84.4297
L112.4759 84.7925
" />
<path d="M112.4759 84.7925
L112.4154 84.9135
" />
<path d="M112.4154 84.9135
L112.3549 84.9740
" />
<path d="M112.3549 84.9740
L112.2340 85.0344
" />
<path d="M112.2340 85.0344
L112.0526 85.0344
" />
<path d="M113.2016 85.0344
L113.0806 84.9740
" />
<path d="M113.0806 84.9740
L113.0201 84.8530
" />
<path d="M113.0201 84.8530
L113.0201 83.7644
" />
<path d="M114.2296 85.0344
L114.2296 84.3692
" />
<path d="M114.2296 84.3692
L114.1691 84.2482
" />
<path d="M114.1691 84.2482
L114.0482 84.1878
" />
<path d="M114.0482 84.1878
L113.8063 84.1878
" />
<path d="M113.8063 84.1878
L113.6853 84.2482
" />
<path d="M114.2296 84.9740
L114.1087 85.0344
" />
<path d="M114.1087 85.0344
L113.8063 85.0344
" />
<path d="M113.8063 85.0344
L113.6853 84.9740
" />
<path d="M113.6853 84.9740
L113.6249 84.8530
" />
<path d="M113.6249 84.8530
L113.6249 84.7320
" />
<path d="M113.6249 84.7320
L113.6853 84.6111
" />
<path d="M113.6853 84.6111
L113.8063 84.5506
" />
<path d="M113.8063 84.5506
L114.1087 84.5506
" />
<path d="M114.1087 84.5506
L114.2296 84.4901
" />
<path d="M114.8343 85.0344
L114.8343 84.1878
" />
<path d="M114.8343 84.4297
L114.8948 84.3087
" />
<path d="M114.8948 84.3087
L114.9553 84.2482
" />
<path d="M114.9553 84.2482
L115.0762 84.1878
" />
<path d="M115.0762 84.1878
L115.1972 84.1878
" />
<path d="M115.6205 85.0344
L115.6205 84.1878
" />
<path d="M115.6205 83.7644
L115.5601 83.8249
" />
<path d="M115.5601 83.8249
L115.6205 83.8854
" />
<path d="M115.6205 83.8854
L115.6810 83.8249
" />
<path d="M115.6810 83.8249
L115.6205 83.7644
" />
<path d="M115.6205 83.7644
L115.6205 83.8854
" />
<path d="M116.1044 84.1878
L116.7696 84.1878
" />
<path d="M116.7696 84.1878
L116.1044 85.0344
" />
<path d="M116.1044 85.0344
L116.7696 85.0344
" />
<path d="M117.7372 84.9740
L117.6163 85.0344
" />
<path d="M117.6163 85.0344
L117.3744 85.0344
" />
<path d="M117.3744 85.0344
L117.2534 84.9740
" />
<path d="M117.2534 84.9740
L117.1930 84.8530
" />
<path d="M117.1930 84.8530
L117.1930 84.3692
" />
<path d="M117.1930 84.3692
L117.2534 84.2482
" />
<path d="M117.2534 84.2482
L117.3744 84.1878
" />
<path d="M117.3744 84.1878
L117.6163 84.1878
" />
<path d="M117.6163 84.1878
L117.7372 84.2482
" />
<path d="M117.7372 84.2482
L117.7977 84.3692
" />
<path d="M117.7977 84.3692
L117.7977 84.4901
" />
<path d="M117.7977 84.4901
L117.1930 84.6111
" />
<path d="M118.8863 85.0344
L118.8863 83.7644
" />
<path d="M118.8863 84.9740
L118.7654 85.0344
" />
<path d="M118.7654 85.0344
L118.5235 85.0344
" />
<path d="M118.5235 85.0344
L118.4025 84.9740
" />
<path d="M118.4025 84.9740
L118.3420 84.9135
" />
<path d="M118.3420 84.9135
L118.2816 84.7925
" />
<path d="M118.2816 84.7925
L118.2816 84.4297
" />
<path d="M118.2816 84.4297
L118.3420 84.3087
" />
<path d="M118.3420 84.3087
L118.4025 84.2482
" />
<path d="M118.4025 84.2482
L118.5235 84.1878
" />
<path d="M118.5235 84.1878
L118.7654 84.1878
" />
<path d="M118.7654 84.1878
L118.8863 84.2482
" />
<path d="M119.1887 85.1554
L120.1563 85.1554
" />
<path d="M120.4586 83.7644
L120.4586 84.7925
" />
<path d="M120.4586 84.7925
L120.5191 84.9135
" />
<path d="M120.5191 84.9135
L120.5796 84.9740
" />
<path d="M120.5796 84.9740
L120.7005 85.0344
" />
<path d="M120.7005 85.0344
L120.9424 85.0344
" />
<path d="M120.9424 85.0344
L121.0634 84.9740
" />
<path d="M121.0634 84.9740
L121.1239 84.9135
" />
<path d="M121.1239 84.9135
L121.1843 84.7925
" />
<path d="M121.1843 84.7925
L121.1843 83.7644
" />
<path d="M121.7287 84.9740
L121.9101 85.0344
" />
<path d="M121.9101 85.0344
L122.2125 85.0344
" />
<path d="M122.2125 85.0344
L122.3334 84.9740
" />
<path d="M122.3334 84.9740
L122.3939 84.9135
" />
<path d="M122.3939 84.9135
L122.4544 84.7925
" />
<path d="M122.4544 84.7925
L122.4544 84.6716
" />
<path d="M122.4544 84.6716
L122.3939 84.5506
" />
<path d="M122.3939 84.5506
L122.3334 84.4901
" />
<path d="M122.3334 84.4901
L122.2125 84.4297
" />
<path d="M122.2125 84.4297
L121.9706 84.3692
" />
<path d="M121.9706 84.3692
L121.8496 84.3087
" />
<path d="M121.8496 84.3087
L121.7891 84.2482
" />
<path d="M121.7891 84.2482
L121.7287 84.1273
" />
<path d="M121.7287 84.1273
L121.7287 84.0063
" />
<path d="M121.7287 84.0063
L121.7891 83.8854
" />
<path d="M121.7891 83.8854
L121.8496 83.8249
" />
<path d="M121.8496 83.8249
L121.9706 83.7644
" />
<path d="M121.9706 83.7644
L122.2729 83.7644
" />
<path d="M122.2729 83.7644
L122.4544 83.8249
" />
</g><path style="fill:none; 
stroke:#000000; stroke-width:0.1524; stroke-opacity:1; 
stroke-linecap:round; stroke-linejoin:round;fill:none"
d="M 38.1000,100.3300
38.1000,101.6000
39.3700,101.6000
38.1000,102.8700
36.8300,101.6000
38.1000,101.6000
" /> 
<text x="38.1000" y="106.0450"
textLength="4.0737" font-size="1.6933" lengthAdjust="spacingAndGlyphs"
text-anchor="middle" opacity="0" stroke-opacity="0">GND</text>
<g class="stroked-text"><desc>GND</desc>
<path d="M37.1324 104.7800
L37.0114 104.7195
" />
<path d="M37.0114 104.7195
L36.8300 104.7195
" />
<path d="M36.8300 104.7195
L36.6486 104.7800
" />
<path d="M36.6486 104.7800
L36.5276 104.9010
" />
<path d="M36.5276 104.9010
L36.4671 105.0219
" />
<path d="M36.4671 105.0219
L36.4067 105.2638
" />
<path d="M36.4067 105.2638
L36.4067 105.4452
" />
<path d="M36.4067 105.4452
L36.4671 105.6871
" />
<path d="M36.4671 105.6871
L36.5276 105.8081
" />
<path d="M36.5276 105.8081
L36.6486 105.9291
" />
<path d="M36.6486 105.9291
L36.8300 105.9895
" />
<path d="M36.8300 105.9895
L36.9509 105.9895
" />
<path d="M36.9509 105.9895
L37.1324 105.9291
" />
<path d="M37.1324 105.9291
L37.1928 105.8686
" />
<path d="M37.1928 105.8686
L37.1928 105.4452
" />
<path d="M37.1928 105.4452
L36.9509 105.4452
" />
<path d="M37.7371 105.9895
L37.7371 104.7195
" />
<path d="M37.7371 104.7195
L38.4628 105.9895
" />
<path d="M38.4628 105.9895
L38.4628 104.7195
" />
<path d="M39.0676 105.9895
L39.0676 104.7195
" />
<path d="M39.0676 104.7195
L39.3700 104.7195
" />
<path d="M39.3700 104.7195
L39.5514 104.7800
" />
<path d="M39.5514 104.7800
L39.6724 104.9010
" />
<path d="M39.6724 104.9010
L39.7329 105.0219
" />
<path d="M39.7329 105.0219
L39.7933 105.2638
" />
<path d="M39.7933 105.2638
L39.7933 105.4452
" />
<path d="M39.7933 105.4452
L39.7329 105.6871
" />
<path d="M39.7329 105.6871
L39.6724 105.8081
" />
<path d="M39.6724 105.8081
L39.5514 105.9291
" />
<path d="M39.5514 105.9291
L39.3700 105.9895
" />
<path d="M39.3700 105.9895
L39.0676 105.9895
" />
</g><path style="fill:none; 
stroke:#000000; stroke-width:0.5080; stroke-opacity:1; 
stroke-linecap:round; stroke-linejoin:round;fill:none"
d="M 36.0680,83.0580
40.1320,83.0580
" /> 
<path style="fill:none; 
stroke:#000000; stroke-width:0.5080; stroke-opacity:1; 
stroke-linecap:round; stroke-linejoin:round;fill:none"
d="M 36.0680,84.5820
40.1320,84.5820
" /> 
</g>
<g style="fill:none; 
stroke:#000000; stroke-width:0.1524; stroke-opacity:1; 
stroke-linecap:round; stroke-linejoin:round;">
<path d="M38.1000 82.8040
L38.1000 80.0100
" />
<path d="M38.1000 84.8360
L38.1000 87.6300
" />
<text x="43.3409" y="83.1849"
textLength="2.6827" font-size="1.6933" lengthAdjust="spacingAndGlyphs"
text-anchor="middle" opacity="0" stroke-opacity="0">C1</text>
<g class="stroked-text"><desc>C1</desc>
<path d="M43.1292 83.0085
L43.0688 83.0690
" />
<path d="M43.0688 83.0690
L42.8873 83.1294
" />
<path d="M42.8873 83.1294
L42.7664 83.1294
" />
<path d="M42.7664 83.1294
L42.5850 83.0690
" />
<path d="M42.5850 83.0690
L42.4640 82.9480
" />
<path d="M42.4640 82.9480
L42.4035 82.8270
" />
<path d="M42.4035 82.8270
L42.3431 82.5851
" />
<path d="M42.3431 82.5851
L42.3431 82.4037
" />
<path d="M42.3431 82.4037
L42.4035 82.1618
" />
<path d="M42.4035 82.1618
L42.4640 82.0409
" />
<path d="M42.4640 82.0409
L42.5850 81.9199
" />
<path d="M42.5850 81.9199
L42.7664 81.8594
" />
<path d="M42.7664 81.8594
L42.8873 81.8594
" />
<path d="M42.8873 81.8594
L43.0688 81.9199
" />
<path d="M43.0688 81.9199
L43.1292 81.9804
" />
<path d="M44.3388 83.1294
L43.6131 83.1294
" />
<path d="M43.9759 83.1294
L43.9759 81.8594
" />
<path d="M43.9759 81.8594
L43.8550 82.0409
" />
<path d="M43.8550 82.0409
L43.7340 82.1618
" />
<path d="M43.7340 82.1618
L43.6131 82.2223
" />
</g><text x="43.8852" y="85.7249"
textLength="3.7712" font-size="1.6933" lengthAdjust="spacingAndGlyphs"
text-anchor="middle" opacity="0" stroke-opacity="0">10u</text>
<g class="stroked-text"><desc>10u</desc>
<path d="M43.0688 85.6694
L42.3431 85.6694
" />
<path d="M42.7059 85.6694
L42.7059 84.3994
" />
<path d="M42.7059 84.3994
L42.5850 84.5809
" />
<path d="M42.5850 84.5809
L42.4640 84.7018
" />
<path d="M42.4640 84.7018
L42.3431 84.7623
" />
<path d="M43.8549 84.3994
L43.9759 84.3994
" />
<path d="M43.9759 84.3994
L44.0968 84.4599
" />
<path d="M44.0968 84.4599
L44.1573 84.5204
" />
<path d="M44.1573 84.5204
L44.2178 84.6413
" />
<path d="M44.2178 84.6413
L44.2783 84.8832
" />
<path d="M44.2783 84.8832
L44.2783 85.1856
" />
<path d="M44.2783 85.1856
L44.2178 85.4275
" />
<path d="M44.2178 85.4275
L44.1573 85.5485
" />
<path d="M44.1573 85.5485
L44.0968 85.6090
" />
<path d="M44.0968 85.6090
L43.9759 85.6694
" />
<path d="M43.9759 85.6694
L43.8549 85.6694
" />
<path d="M43.8549 85.6694
L43.7340 85.6090
" />
<path d="M43.7340 85.6090
L43.6735 85.5485
" />
<path d="M43.6735 85.5485
L43.6130 85.4275
" />
<path d="M43.6130 85.4275
L43.5526 85.1856
" />
<path d="M43.5526 85.1856
L43.5526 84.8832
" />
<path d="M43.5526 84.8832
L43.6130 84.6413
" />
<path d="M43.6130 84.6413
L43.6735 84.5204
" />
<path d="M43.6735 84.5204
L43.7340 84.4599
" />
<path d="M43.7340 84.4599
L43.8549 84.3994
" />
<path d="M45.3668 84.8228
L45.3668 85.6694
" />
<path d="M44.8225 84.8228
L44.8225 85.4880
" />
<path d="M44.8225 85.4880
L44.8830 85.6090
" />
<path d="M44.8830 85.6090
L45.0040 85.6694
" />
<path d="M45.0040 85.6694
L45.1854 85.6694
" />
<path d="M45.1854 85.6694
L45.3063 85.6090
" />
<path d="M45.3063 85.6090
L45.3668 85.5485
" />
</g><path d="M104.1400 67.3100
L104.1400 80.0100
" />
<path d="M80.0100 67.3100
L104.1400 67.3100
" />
<path d="M104.1400 100.3300
L104.1400 87.6300
" />
<path d="M72.3900 100.3300
L72.3900 74.9300
" />
<path d="M64.7700 67.3100
L38.1000 67.3100
" />
<path d="M38.1000 100.3300
L38.1000 87.6300
" />
<path d="M38.1000 67.3100
L38.1000 80.0100
" />
</g> 
</svg>
